<?xml version="1.0" encoding="utf-8"?>
<!-- Generator: Adobe Illustrator 24.1.0, SVG Export Plug-In . SVG Version: 6.00 Build 0)  -->
<svg version="1.1" id="b543c902-2711-464d-9f40-b15eb324e31e"
	 xmlns="http://www.w3.org/2000/svg" xmlns:xlink="http://www.w3.org/1999/xlink" x="0px" y="0px" viewBox="0 0 1038.2 693.3"
	 style="enable-background:new 0 0 1038.2 693.3;" xml:space="preserve">
<style type="text/css">
	.st0{opacity:2.000000e-02;fill:#263238;}
	.st1{fill:url(#SVGID_1_);}
	.st2{fill:#C9AD85;}
	.st3{fill:#464353;}
	.st4{fill:#263238;}
	.st5{opacity:0.1;enable-background:new    ;}
	.st6{fill:#FAA21B;}
	.st7{fill:#191919;}
	.st8{fill:#C1C1C1;}
	.st9{opacity:0.1;}
	.st10{opacity:0.8;}
	.st11{fill:none;stroke:#3F3D56;stroke-width:3;stroke-miterlimit:10;}
	.st12{opacity:0.16;clip-path:url(#SVGID_3_);enable-background:new    ;}
	.st13{fill:#FFFFFF;}
	.st14{fill:#F9A11B;}
	.st15{opacity:0.16;clip-path:url(#SVGID_5_);enable-background:new    ;}
</style>
<path class="st0" d="M615.2,111.4c-64.7-2.2-126.4-23.1-185.2-46S312.9,17.2,249.7,5.1C209.1-2.7,162.6-3.8,129.9,18
	c-31.5,21-41.7,57.1-47.2,90.7c-4.1,25.3-6.5,51.8,4.8,75.5c7.8,16.4,21.7,30.2,31.4,46c33.5,54.7,9.8,122.2-26.5,175.6
	c-17,25.1-36.7,49-49.9,75.7s-19.2,57.3-7.7,84.5c11.4,27,38.5,47.2,67.9,61.5c59.7,28.9,130,37.2,198.6,41.9
	c151.8,10.4,304.5,5.9,456.7,1.4c56.3-1.7,112.9-3.4,168.3-12.1c30.8-4.8,62.6-12.5,84.9-31c28.4-23.5,35.4-63.4,16.4-92.9
	c-31.9-49.5-120-61.8-142.3-114.9c-12.3-29.2,0.3-61.8,18.2-88.9c38.2-58.2,102.3-109.2,105.7-175.7c2.3-45.7-28.5-91.4-76.1-113
	C883.1,19.6,813.8,22.5,777,60C739,98.5,672.4,113.4,615.2,111.4z"/>
<linearGradient id="SVGID_1_" gradientUnits="userSpaceOnUse" x1="321.3599" y1="1225.9144" x2="321.3599" y2="714.6172" gradientTransform="matrix(1 0 0 1 -80.89 -533.35)">
	<stop  offset="0" style="stop-color:#808080;stop-opacity:0.25"/>
	<stop  offset="0.54" style="stop-color:#808080;stop-opacity:0.12"/>
	<stop  offset="1" style="stop-color:#808080;stop-opacity:0.1"/>
</linearGradient>
<path class="st1" d="M448.7,651.5c-1-3.6-2-7.3-4-10.4c-1.9-2.7-4.1-5.1-6.5-7.2c-7.2-6.6-16.1-13.3-25.8-11.6
	c-3,0.7-5.8,1.7-8.5,3.1c-1.4,0.7-2.8,1.3-4.2,1.8c-4.1,1.7-8.5,2.1-12.8,1.1c-2.2-0.6-4.2-1.7-6.4-2.3c-1-0.3-2.1-0.5-3.1-0.7
	c2.1-0.9,4.1-2,6.1-3.2c10.8-6.6,19.4-18.5,18.2-31.3c-0.4-4.3-1.9-8.4-3.3-12.5l-3.8-10.6c-1.7-4.6-3.4-9.3-6.4-13.1
	c-3.4-4.3-8.2-7.2-13.1-9.3c-10.6-4.6-22.3-6.3-33.8-7.8l-0.8-0.1V413.3c0-4.4-3.6-8-8-8h-15.1c-0.7-4.1-1.3-8.2-2-12.2
	c-1.9-11.6-3.9-23.4-9.2-33.9c-3.5-6.8-9.1-13.4-16.6-14.7c-1.5-0.1-2.9-0.5-4.3-1c-2.2-1.1-3.4-3.5-5.1-5.2
	c-4.4-4.6-11.5-4.6-17.3-7c-5.2-2-9.4-5.9-14.1-8.9s-10.5-5.1-15.7-3.1c0,0.4-0.1,0.8-0.1,1.1l-3.3-1.5c-3.6-1.7-7.3-3.4-10.2-6.1
	c-3.7-3.5-5.7-8.1-7.2-13.1c-0.2-0.5-0.3-1-0.5-1.5c6.4-6.5,10.7-14.8,12.4-23.8l0.8,2.6c0.2,0.6,0.4,1.2,0.6,1.7
	c0.4,1.1,1.1,2.1,2,2.8c0.3,0.2,0.5,0.4,0.8,0.5s0.6,0.2,0.9,0.2c0.4,0.1,0.8,0,1.2-0.1c1.4-0.4,2.5-1.4,3-2.8
	c0.2-0.4,0.3-0.8,0.4-1.2c0-0.3,0.1-0.5,0.1-0.8c0-0.1,0-0.2,0-0.2s0-0.4,0-0.5s0-0.2,0-0.3s0-0.3,0-0.5v-0.3c0-0.2-0.1-0.4-0.1-0.6
	s0-0.1,0-0.2c0-0.2-0.1-0.5-0.2-0.8c0-0.1,0-0.1,0-0.2s-0.1-0.4-0.1-0.6s-0.1-0.3-0.1-0.4v-0.1l0,0c-0.1-0.4-0.2-0.8-0.3-1.2
	c-0.7-3.5-0.9-7-0.5-10.6c0.6-5.2,1.6-10.3,2.9-15.4l0.2-0.9c0.1-0.4,0.2-0.7,0.2-1.1c0.2-0.7,0.3-1.4,0.5-2.2l0,0l0.4-1.8l0.3-1.6
	v-0.2c0.6-3.7,0.7-7.5,0.4-11.2l0,0c-0.5-5.2-2.1-10.2-5.6-14.1c-2.5-2.8-5.8-4.9-8.1-7.8c-2.2-2.7-3.4-6.1-5.7-8.8
	c-6.2-7.5-22.3-13.2-32.1-14.2c-11.3-1.1-29.4,1.7-38.5,8.4c-3.4,2.5-5.7,6-8,9.4c-4.3,6.2-9.2,12.5-16.1,16
	c-2.6,1.3-5.6,2.3-7.3,4.6c-1,1.6-1.7,3.3-1.9,5.2c-1.3,6.5-2,13.1-2.1,19.8l0,0c0,0.8,0,1.7,0,2.5c0,2.5,0.6,5,1.6,7.2
	c0.2,0.3,0.3,0.7,0.5,1l0.1,0.2c1.2,1.7,2.3,3.6,3.2,5.5c0.2,0.5,0.4,1.1,0.5,1.7c0.2,1.5,0.1,2.9-0.3,4.4l0,0
	c0,0.2-0.1,0.4-0.1,0.7l-0.1,0.4c0,0.1,0,0.3-0.1,0.4c-0.1,0.4-0.1,0.9-0.2,1.3l0,0c-0.2,1.2-0.1,2.3,0.2,3.5c0.3,1.3,1.1,2.4,2.2,3
	c0.6,0.3,1.2,0.5,1.8,0.6c0.6,0.1,1.3,0.2,1.9,0.3c0.8,0.2,1.6,0.5,2.3,0.9c0.7,0.3,1.3,0.7,1.9,1.2c0.3,0.3,0.6,0.5,0.8,0.8
	c0.5,0.6,1,1.3,1.4,1.9c0.2,0.4,0.4,0.7,0.6,1.1c0.7,1.4,1.3,3,1.7,4.5c0.3,0.9,0.5,1.9,0.7,2.8c0.1,0.4,0.2,0.8,0.2,1.2
	s0.1,0.8,0.2,1.2l0,0c0.3,0,0.5-0.1,0.8-0.2c1.5-0.5,2.3-2.2,2.8-3.9c0.1-0.3,0.1-0.5,0.2-0.8c0.2-1,0.5-2.1,0.7-3.1
	c3.9,8.4,10.3,15.4,18.2,20.1c0.3,0.8,0.6,1.6,0.8,2.5c1.3,4.5,1.9,9.3-0.3,13.2c-1.6,2.8-4.3,4.5-7.4,5.7c-0.4-0.6-1-1.1-1.6-1.4
	c-2.6-1.3-5.8,0.3-8,2.2c-4,3.6-7.3,8.8-12.5,10c-1.9,0.4-4,0.4-5.6,1.5c-1,1-1.9,2.1-2.6,3.4c-2.3,3.3-6.2,5.3-10.2,5.1
	c-1.8-0.1-4-0.5-5.2,0.8c-0.9,1-1,2.6-2,3.5c-1.3,1.3-3.5,0.7-5.4,0.6c-3.6-0.1-6.9,2.1-8.9,5.1s-3,6.5-4,10v0.1
	c-0.3,0.2-0.5,0.4-0.7,0.6c-1,1-1.7,2.3-2.2,3.6C72,390.2,67.2,409.9,66,430c0,1-0.2,1.9-0.6,2.8c-0.4,0.6-0.9,1.1-1.5,1.6
	c-2,2.4-1.6,5.9,0.8,7.9l0.1,0.1c0.3-0.5,0.6-1,1.1-1.4c-0.1,0.5-0.2,0.9-0.3,1.3c-0.4,2.9-0.4,5.9-0.1,8.8
	c0.9,13.9,1.9,27.8,2.9,41.7c0.3,3.9,0.5,7.8,0.9,11.8c0.7,7.6,1.7,15.1,3,22.7c0.1,0.3,0.1,0.7,0.2,1c-8.1,2.6-15.4,7.3-18.4,15.1
	c-1.1,2.7-1.5,5.6-2.8,8.2c-1.4,2.8-3.8,5.1-5.3,7.9c-2.7,4.8-2.8,10.6-1.8,16c1.9,10.5,7.5,19.8,15,27.4c-0.3,0-0.7,0-1,0
	c-2.4,0.3-4.8,1.1-6.8,2.5c-15.8,9.2-24.8,29-21.5,47.1c0.7,3.5,1.8,7.1,4.1,9.8c2,2.1,4.5,3.7,7.3,4.5c1.7,0.5,3.5,0.9,5.4,1
	c12.3,1,24.2-4.7,36.5-5.2c4.1-0.1,8.2,0.1,12.2,0.6c5.9,0.5,11.9,0.8,17.9,0.9c9.7,0.2,15.1-2.3,21.3-9.6c1.5-1.8,2.8-3.8,3.8-5.9
	c5.3-0.3,11.1-0.8,15.3-1.1l0.1,0.6c0.2,2,0.6,4.3,2.2,5.6c0.9,0.6,1.9,1,3,1.2c10.1,2.5,20.3,5,30.7,5c4.9-0.1,9.8-0.5,14.6-1.1
	l18.3-2.1c5.3,0.7,10.6,1.8,15.7,3.4c5.3,1.8,10.2,4.5,15.4,6.6c12,4.9,24.9,6.6,37.7,8.3c2.2,0.3,4.7,0.5,6.3-1
	c2.1-2,1.4-5.3,0.8-8.1c-0.2-1.2-0.4-2.3-0.6-3.5c8.6,2.3,17.1,5.2,25.2,8.8l1.4,0.6c0.4,2.2,2.4,3.9,4.4,6.3c0.6,1,1.4,1.9,2.2,2.7
	c1,0.6,2,1,3.2,1.1c13.5,2.5,27.3,3.1,40.9,1.8c2.8-0.4,5.6-0.5,8.4-0.3c2.1,0.3,4.1,0.7,6.1,1.4l11.6,3.3
	c8.5,2.4,17.3,4.9,26.1,4.4c1.8-0.1,3.6-0.4,5.3-0.8c7-1.6,13.5-5.5,16.9-11.8C453.5,671.4,451.3,660.9,448.7,651.5z"/>
<path class="st2" d="M125,649.5c-2.1-4.8-4.1-10.3-2-15.1c1.4-2.8,3.7-5.1,6.6-6.2c2.9-1.2,5.9-1.9,9-2.2c9.7-1.3,19.5-1.4,29.3-0.4
	c0.7,5.6-0.8,11.3-2.1,16.8c-1.2,5-1.8,5.7-7,6C155.5,648.5,125.8,651.3,125,649.5z"/>
<ellipse class="st3" cx="214.1" cy="577.2" rx="143" ry="40"/>
<ellipse class="st4" cx="214.1" cy="577.2" rx="143" ry="40"/>
<path class="st2" d="M239.7,366c-4.9,9.5-13,16.9-22.9,20.8c-5.8,2.1-12,3.3-18.2,3.5c-6.8,0.3-13.7-0.1-20.1-2.5
	c-8.6-3.1-15.7-9.4-21-16.8s-9-15.8-12.2-24.3c-1.7-4.4-3.3-9.1-2.5-13.8c5.1-1.2,10.8-2.9,13.4-7.5c2.3-3.9,1.6-8.6,0.3-13.1
	c-0.4-1.3-0.8-2.5-1.2-3.7c-1-2.9-4.4-8.4-2-10.9c1.5-1.6,7.9-2.4,10.1-3.4c6.8-3.1,13.1-7.7,20.6-9.2c6.5-1.3,13.1-0.1,19.6,1.3
	c0.9,0.1,1.7,0.4,2.4,0.9c0.8,0.7,1.5,1.6,1.8,2.7c1.8,4.5,2.9,9.4,4.4,14.1c1.5,4.9,3.5,9.5,7.2,13c2.9,2.7,6.6,4.4,10.2,6.1
	l8.9,4.1c1.6,0.6,3,1.5,4.2,2.7c1.2,1.6,1.9,3.5,2,5.4C246.3,345.8,244.6,356.5,239.7,366z"/>
<path class="st5" d="M212.2,304c-14.5,15.1-37.4,18.5-55.7,8.3c-0.4-1.3-0.8-2.5-1.2-3.7c-1-2.9-4.4-8.4-2-10.9
	c1.5-1.6,7.9-2.4,10.1-3.4c6.8-3.1,13.1-7.7,20.6-9.2c6.5-1.3,13.1-0.1,19.6,1.3c0.9,0.1,1.7,0.4,2.4,0.9c0.8,0.7,1.5,1.6,1.8,2.7
	C209.7,294.4,210.8,299.4,212.2,304z"/>
<circle class="st2" cx="179.1" cy="270.2" r="46"/>
<path class="st6" d="M319.2,419.4l-3.8-22.9c-1.9-11.5-3.9-23.2-9.2-33.5c-3.5-6.8-9.1-13.2-16.6-14.6c-1.5-0.1-2.9-0.5-4.3-1
	c-2.2-1.1-3.4-3.4-5.1-5.2c-4.4-4.5-11.5-4.6-17.3-6.9c-5.2-2-9.4-5.9-14.1-8.8s-10.5-5-15.8-3.1c-0.8,9-1.7,18.1-5.5,26.2
	c-9.2,19.7-32.5,28.2-52.2,19c-2.5-1.2-4.9-2.6-7.1-4.2c-8.9-6.7-14.6-17.1-17.3-27.9c-0.6-2.6-1.4-5.7-3.8-6.9
	c-2.6-1.3-5.8,0.3-8,2.2c-4,3.6-7.3,8.7-12.5,9.9c-1.9,0.4-4,0.4-5.6,1.5c-1.1,1-1.9,2.1-2.6,3.4c-2.3,3.3-6.2,5.2-10.2,5.1
	c-1.8-0.1-4-0.5-5.2,0.8c-0.9,1-1,2.6-2,3.5c-1.4,1.3-3.5,0.7-5.4,0.6c-3.6-0.1-6.9,2.1-8.9,5s-3,6.4-4,9.9
	c10.9,24.3,20.9,48.7,31.9,73c0.5,0.9,0.8,1.9,0.8,3c-0.2,1.1-0.7,2.1-1.4,3c-5.4,8.6-5.2,19.4-4.6,29.6s1.3,20.8-3.2,29.9
	c-1.2,2.5-2.8,4.8-4,7.3c-2.7,5.6-3.7,23.7-2.1,29.7h226.1c-4.3-11.8-2.7-35.6-1.8-48.2c0.6-8.8-1-17.6-1.7-26.4
	C321.1,454.4,322.2,437.4,319.2,419.4z"/>
<path class="st2" d="M65.4,445.6c-0.4,2.9-0.4,5.8-0.1,8.7l2.9,41.3c0.3,3.9,0.5,7.8,0.9,11.7c0.7,7.5,1.7,15,3,22.5
	c0.1,2.2,1.9,3.9,4.1,3.9c12.6,2.7,25.7,2.6,38.6,1.8c19.7-1.1,39.4-3.6,59.1-3.2c5.1,0.1,11,0,14.1-4s1.3-10.5-2.7-13.7
	s-9.5-4-14.6-4c-6.8-0.1-13.7,0.9-20.5,0.5c-6.2-0.4-12.4-1.9-18.4-3.4l-17-4.2c0.6-5.2,2.6-10,4.5-14.9c3.3-8.7,6.5-17.6,6.5-26.9
	s-3.4-19.1-11.1-24.4c-6.3-4.4-14.3-5.2-21.9-5c-5.6,0.2-15.1-1.2-20.2,1C68.4,435.1,66.1,441.7,65.4,445.6z"/>
<path class="st3" d="M330.8,540c3.3-1.3,7-0.8,10.6-0.3c11.5,1.6,23.2,3.2,33.8,7.8c5,2.1,9.8,5,13.1,9.2c3,3.8,4.8,8.4,6.4,13
	l3.8,10.5c1.5,4,2.9,8.1,3.4,12.3c1.2,12.6-7.4,24.5-18.2,31c-10.8,6.5-23.6,8.9-36,11.3c-12.4,2.4-24.9,5.1-37.3,8
	c-5.8,1.5-11.6,2.6-17.5,3.5c-13.2,1.5-27.1-0.7-39.7,3.7c-5,1.8-9.9,4.3-15.1,5.6c-3.4,0.7-6.9,1.3-10.4,1.6l-23.8,2.7
	c-4.8,0.6-9.7,1-14.6,1.1c-10.4,0-20.6-2.5-30.7-4.9c-1.1-0.2-2.1-0.6-3-1.2c-1.6-1.3-1.9-3.5-2.2-5.5c-1-8.9-1.9-17.9-2.7-26.8
	c-0.2-2.9-0.4-6.1,1.2-8.5c2-3,5.9-3.9,9.5-4.5c15.1-2.5,30.4-3.5,45.7-3.2c5.8-5.8,15.4-5.8,23-9c2.8-1.3,5.5-2.8,8.1-4.4
	c13.6-7.9,28.8-12.7,44.5-14.1c3.1-0.1,6.1-0.5,9.1-1.3c5.9-1.8,11.3-6.8,17.3-5.6c0.8-2.1,1.3-4.8,3-6.3c0.9-0.7,1.9-1.2,2.7-2
	c1.7-1.7,1.8-4.3,1.6-6.7s-0.8-4.8-0.2-7.1c0.3-0.9,0.6-1.7,1.1-2.5C320.2,542.2,324.8,539.5,330.8,540z"/>
<path class="st4" d="M330.8,540c3.3-1.3,7-0.8,10.6-0.3c11.5,1.6,23.2,3.2,33.8,7.8c5,2.1,9.8,5,13.1,9.2c3,3.8,4.8,8.4,6.4,13
	l3.8,10.5c1.5,4,2.9,8.1,3.4,12.3c1.2,12.6-7.4,24.5-18.2,31c-10.8,6.5-23.6,8.9-36,11.3c-12.4,2.4-24.9,5.1-37.3,8
	c-5.8,1.5-11.6,2.6-17.5,3.5c-13.2,1.5-27.1-0.7-39.7,3.7c-5,1.8-9.9,4.3-15.1,5.6c-3.4,0.7-6.9,1.3-10.4,1.6l-23.8,2.7
	c-4.8,0.6-9.7,1-14.6,1.1c-10.4,0-20.6-2.5-30.7-4.9c-1.1-0.2-2.1-0.6-3-1.2c-1.6-1.3-1.9-3.5-2.2-5.5c-1-8.9-1.9-17.9-2.7-26.8
	c-0.2-2.9-0.4-6.1,1.2-8.5c2-3,5.9-3.9,9.5-4.5c15.1-2.5,30.4-3.5,45.7-3.2c5.8-5.8,15.4-5.8,23-9c2.8-1.3,5.5-2.8,8.1-4.4
	c13.6-7.9,28.8-12.7,44.5-14.1c3.1-0.1,6.1-0.5,9.1-1.3c5.9-1.8,11.3-6.8,17.3-5.6c0.8-2.1,1.3-4.8,3-6.3c0.9-0.7,1.9-1.2,2.7-2
	c1.7-1.7,1.8-4.3,1.6-6.7s-0.8-4.8-0.2-7.1c0.3-0.9,0.6-1.7,1.1-2.5C320.2,542.2,324.8,539.5,330.8,540z"/>
<path class="st7" d="M134.2,655.7c-6.2,7.2-11.6,9.7-21.3,9.5c-6-0.1-11.9-0.5-17.9-0.9c-4.1-0.4-8.2-0.6-12.2-0.6
	c-12.3,0.5-24.2,6.1-36.6,5.1c-1.8-0.1-3.6-0.5-5.4-1c-2.8-0.8-5.3-2.3-7.3-4.4c-2.4-2.7-3.5-6.2-4.1-9.7
	c-3.3-17.9,5.7-37.5,21.5-46.6c2.1-1.3,4.4-2.2,6.8-2.4c2.4,0,4.8,0.5,6.9,1.5l0.1,0.1c6.4,2.6,12.2,6.5,17.1,11.4
	c0.7,0.9,1.6,1.6,2.6,2.1c1,0.4,2,0.6,3.1,0.6l13.1,0.8c2.2,0.1,4.4,0.4,6.6,0.9c2.4,0.8,4.7,1.8,6.9,3c7.1,3.2,14.9,4,22.6,5.2
	c0.7,0,1.4,0.3,2,0.8c0.3,0.4,0.5,0.8,0.6,1.3C141.7,640.6,139.7,649.3,134.2,655.7z"/>
<path class="st5" d="M64.9,606.3c-5.1,4.9-9.5,10.4-13.1,16.4c-5.8,10-9.5,21.1-10.7,32.5c-0.5,4.2-0.5,8.4-0.1,12.6
	c-2.8-0.8-5.3-2.3-7.3-4.4c-2.4-2.7-3.5-6.2-4.1-9.7c-3.3-17.9,5.7-37.5,21.5-46.6c2.1-1.3,4.4-2.2,6.8-2.4c2.4,0,4.8,0.5,6.9,1.5
	L64.9,606.3z"/>
<path class="st2" d="M319.3,631.2c7.4-0.2,15.6-0.6,21,4.4c5.2,4.7,5.8,12.4,6.2,19.3l0.4,8.1c0.1,2.5,0.2,5-0.8,7.3
	c-1.8,4-6.6,5.9-11,5.7s-8.5-2.2-12.5-3.9c-10.9-4.7-22.3-8.3-34-10.7c0.4-5.6,1-11.1,1.9-16.7c0.6-3.8,0.7-10.2,3.3-13.4
	c2.7-3.4,6.2-1.5,9.9-0.9C308.9,631.1,314.1,631.4,319.3,631.2z"/>
<path class="st4" d="M125.1,550.1c0,1-1.6,0-1.7-1.1c-1.1-8.1-7.5-14.8-15-18s-16-3.4-24.1-2.6c-12.2,1.2-26,5.8-30.5,17.3
	c-1.1,2.7-1.5,5.6-2.8,8.2c-1.4,2.8-3.8,5.1-5.3,7.8c-2.7,4.7-2.8,10.5-1.8,15.9c2.6,14.3,12.4,26.5,24.2,35s25.7,13.5,39.5,18.1
	c36.5,12,74,21,112,26.8c6.2,0.9,12.4,1.8,18.3,3.8c5.3,1.8,10.2,4.4,15.4,6.5c12,4.8,24.9,6.5,37.7,8.2c2.2,0.3,4.7,0.5,6.3-1
	c2.1-1.9,1.4-5.3,0.8-8.1c-2.2-10.5-0.3-21.5,5.1-30.8c2.1-3.6,4.9-7.3,4.5-11.5c-0.5-4.9-5.3-8.3-10.1-9.1s-9.7,0.4-14.6,1
	c-1.7,0.2-3.5,0.4-5-0.5c-0.7-0.5-1.4-1.1-1.9-1.7c-6.8-6.6-17.2-8-25.5-3.6c-1.8,1-4.5-1.2-6.4-2.1l-21-9.5
	c-24.2-10.9-48.4-21.9-74-28.8c-2-0.4-4-1.2-5.7-2.4c-1.3-1-2.2-2.4-3.4-3.5c-2.6-2.4-6.1-3.4-9.2-5.1S124.4,553.5,125.1,550.1z"/>
<path class="st7" d="M449.3,680.8c-3.4,6.2-9.9,10.1-16.9,11.7c-1.8,0.4-3.5,0.7-5.3,0.8c-8.9,0.5-17.6-1.9-26.1-4.3l-11.6-3.3
	c-2-0.6-4-1.1-6.1-1.4c-2.8-0.2-5.6-0.1-8.4,0.3c-13.7,1.3-27.5,0.7-41-1.8c-1.1-0.1-2.2-0.5-3.2-1.1c-0.8-0.8-1.6-1.7-2.2-2.7
	c-3.1-3.8-6.5-6-2.8-11c2.2-2.9,6.1-4.3,7.8-7.7s0.6-8.1-0.4-11.5c-1.3-4.8-5.8-6.8-7.4-11.2c-1.2-3.3,0.8-7.1,3.8-8.9
	s6.7-1.9,10.2-1.5c3.5,0.5,6.9,1.4,10.4,1.7c10.3,0.8,20.8-4.5,30.6-1.5c2.2,0.7,4.2,1.7,6.4,2.3c4.3,1,8.8,0.6,12.8-1.1
	c1.4-0.5,2.8-1.2,4.2-1.8c2.7-1.4,5.6-2.4,8.5-3.1c9.6-1.7,18.5,5,25.8,11.5c2.5,2.1,4.7,4.5,6.5,7.1c2,3.1,3.1,6.8,4,10.3
	C451.7,661.8,453.9,672.3,449.3,680.8z"/>
<path class="st5" d="M449.3,680.8c-3.4,6.2-9.9,10.1-16.9,11.7c2.7-5.3,4-11.2,3.5-17.2c-0.6-9.5-4.8-18.5-10.1-26.4
	c-3.3-4.9-7-9.4-11.1-13.6c-3.2-3.2-7.1-5.7-10.5-8.7c2.7-1.4,5.6-2.4,8.5-3.1c9.6-1.7,18.5,5,25.8,11.5c2.5,2.1,4.7,4.5,6.5,7.1
	c2,3.1,3.1,6.8,4,10.3C451.7,661.8,453.9,672.3,449.3,680.8z"/>
<path class="st6" d="M82.1,372.3c-1,1-1.7,2.2-2.2,3.5C71.8,394,67,413.5,65.8,433.4c0,1-0.2,1.9-0.6,2.8c-0.4,0.6-0.9,1.1-1.5,1.6
	c-2,2.3-1.7,5.8,0.7,7.8c0.1,0.1,0.2,0.2,0.3,0.2c1.6-3.1,5.6-4.1,9.1-4.4c16.8-1.3,33.2,6.5,50.1,5.9c-1.2-4.1-2.9-8.1-3.9-12.2
	c-4.3-18.5,6.4-38.6-0.1-56.4c-1.3-3.6-3.5-7.1-6.9-8.6c-1.4-0.6-2.9-1-4.4-1.2c-4.3-0.8-12.7-4.1-16.9-2.7
	c-1.5,0.5-2.1,1.9-3.4,2.8C86.2,370.2,83.7,370.6,82.1,372.3z"/>
<path class="st8" d="M125.5,408.7h207.1c4.4,0,8,3.6,8,8v126.1c0,4.4-3.6,8-8,8H125.5c-4.4,0-8-3.6-8-8V416.6
	C117.6,412.2,121.1,408.7,125.5,408.7z"/>
<path class="st7" d="M147.3,195.5c-3.4,2.4-5.7,5.9-8,9.3c-4.3,6.2-9.2,12.4-16.1,15.8c-2.6,1.3-5.6,2.3-7.3,4.6
	c-1,1.5-1.7,3.3-1.9,5.1c-1.3,6.5-2,13-2.1,19.6c0,3.3,0.1,6.7,1.6,9.6c1.4,2.8,3.8,5.2,4.4,8.2c0.4,2.4-0.5,4.8-0.8,7.1
	s0.2,5.2,2.4,6.4c1.2,0.4,2.4,0.7,3.7,0.9c6.6,1.5,8.9,9.3,9.9,15.7c2.3-0.1,3.3-2.7,3.8-4.8l6.9-30.8c0.8-3.3,2-7.2,5.3-8.4
	c2.2-0.8,4.7,0,7,0.1c9.1,0.8,16.9-6.3,25.8-8.3c2.9-0.6,5.8-0.8,8.7-0.6c7.1,0.4,15.3,3.2,16.8,9.8c0.2,1.1,0.4,2.4,1.4,2.9
	s2,0.1,3.1,0c4.5-0.5,7.1,4.6,8.4,8.7l4.7,15c0.7,2.3,1.9,4.9,4.3,5.2c2.3,0.3,4.2-1.9,4.5-4s-0.4-4.3-0.9-6.5
	c-2.2-9.9,1.2-19.9,3.2-29.8s2.4-21.2-4.5-28.8c-2.5-2.8-5.8-4.8-8.1-7.7c-2.2-2.7-3.4-6.1-5.7-8.7c-6.2-7.4-22.3-13.1-32.1-14
	C174.6,186.1,156.4,188.9,147.3,195.5z"/>
<g class="st9">
	<path d="M229.4,279.8c-2.5-0.3-3.6-3-4.3-5.2c-1.6-5-3.1-10-4.7-15c-1.3-4.1-3.9-9.2-8.4-8.7c-1,0.1-2.2,0.5-3.1,0
		s-1.1-1.8-1.4-2.9c-1.5-6.6-9.7-9.5-16.8-9.8c-2.9-0.2-5.8,0-8.7,0.6c-8.9,2-16.7,9-25.8,8.3c-2.4-0.2-4.8-0.9-7-0.1
		c-3.4,1.2-4.6,5-5.3,8.4l-6.9,30.8c-0.5,2.1-1.5,4.7-3.8,4.8c-1-6.4-3.2-14.2-9.9-15.7c-1.3-0.1-2.5-0.4-3.7-0.9
		c-0.9-0.5-1.6-1.2-1.9-2.1c-0.2,0.9-0.4,1.9-0.5,2.8c-0.3,2.4,0.2,5.2,2.4,6.4c1.2,0.4,2.4,0.7,3.7,0.9c6.6,1.5,8.9,9.3,9.9,15.7
		c2.3-0.1,3.3-2.7,3.8-4.8l6.9-30.8c0.8-3.3,2-7.2,5.3-8.4c2.2-0.8,4.7,0,7,0.1c9.1,0.8,16.9-6.3,25.8-8.3c2.9-0.6,5.8-0.8,8.7-0.6
		c7.1,0.4,15.3,3.2,16.8,9.8c0.2,1.1,0.4,2.4,1.4,2.9s2,0.1,3.1,0c4.5-0.5,7.1,4.6,8.4,8.7c1.6,5,3.1,10,4.7,15
		c0.7,2.3,1.9,4.9,4.3,5.2c2.3,0.3,4.2-1.9,4.5-4c0.2-1.8-0.1-3.6-0.6-5.3C232.6,279,231,279.9,229.4,279.8z"/>
	<path d="M117.8,260.8c-0.5-3-3-5.4-4.4-8.2c-0.9-1.9-1.4-3.9-1.5-6c0,1.1-0.1,2.2-0.1,3.4c0,3.3,0.1,6.7,1.6,9.6
		c1.1,2.3,2.9,4.3,3.9,6.6C117.8,264.4,118,262.6,117.8,260.8z"/>
	<path d="M236.3,239.5c-1.8,8.7-4.7,17.6-3.8,26.3c0.6-6.5,2.5-12.9,3.8-19.3c1.1-4.9,1.5-9.9,1.2-14.8
		C237.2,234.3,236.8,236.9,236.3,239.5z"/>
</g>
<g class="st10">
	<line class="st11" x1="330" y1="290.5" x2="955.1" y2="290.5"/>
	<path class="st11" d="M385.6,290.5c0,0,29.9,4.1,14.4-27.9s42-26,42-26"/>
	<path class="st11" d="M584.6,290.5c0,0,29.9-4.1,14.4,27.9s42,26,42,26"/>
	<path class="st11" d="M871.3,290.5c0,0-29.9-4.1-14.4,27.9s-42,26-42,26"/>
	<line class="st11" x1="814.9" y1="344.4" x2="649.9" y2="344.4"/>
	<circle class="st4" cx="330" cy="290.5" r="18.2"/>
	<circle class="st7" cx="442.3" cy="236.3" r="18.2"/>
	<circle class="st4" cx="442.3" cy="290.5" r="18.2"/>
	<circle class="st4" cx="514.7" cy="290.5" r="18.2"/>
	<circle class="st6" cx="641.3" cy="344.1" r="18.2"/>
	<circle class="st6" cx="737" cy="344.1" r="18.2"/>
	<circle class="st4" cx="732" cy="290.5" r="18.2"/>
	<circle class="st4" cx="950.5" cy="290.5" r="18.2"/>
	<circle class="st4" cx="861.1" cy="290.5" r="18.2"/>
	<rect x="299.4" y="122.7" class="st4" width="61.2" height="42.2"/>
	<rect x="411.9" y="122.7" class="st7" width="61.2" height="42.2"/>
	<rect x="610.5" y="122.7" class="st6" width="61.2" height="42.2"/>
</g>
<g id="XMLID_2_">
	<g id="XMLID_73_">
		
			<image style="overflow:visible;opacity:0.2;enable-background:new    ;" width="61" height="61" xlink:href="D8D9F047A24F6832.png"  transform="matrix(0.9836 0 0 0.9836 199.1632 453.4862)">
		</image>
		<g>
			<circle class="st4" cx="229.1" cy="479.7" r="17.5"/>
		</g>
	</g>
	<g id="XMLID_65_">
		<g>
			<defs>
				<circle id="SVGID_2_" cx="229.1" cy="479.7" r="17.5"/>
			</defs>
			<clipPath id="SVGID_3_">
				<use xlink:href="#SVGID_2_"  style="overflow:visible;"/>
			</clipPath>
			<path id="XMLID_72_" class="st12" d="M223.3,490.6l6.8,6.8c0,0,6-0.7,8.1-2.4l2.4-1.9l2-2l2-3l1.1-2.5l0.7-2.7l0.3-2.5l-12-12"/>
		</g>
	</g>
	<g id="XMLID_60_">
		
			<image style="overflow:visible;opacity:0.2;enable-background:new    ;" width="39" height="49" xlink:href="D8D9F047A24F6836.png"  transform="matrix(0.9776 0 0 0.9776 210.1007 459.5359)">
		</image>
		<g>
			<path class="st13" d="M233.5,467.9h-8.9c-1,0-1.8,1-1.8,2.1v19.2c0,1.2,0.8,2.1,1.8,2.1h8.9c1,0,1.8-1,1.8-2.1V470
				C235.3,468.9,234.5,467.9,233.5,467.9z"/>
		</g>
	</g>
	<g id="XMLID_51_">
		<rect x="223.1" y="469.7" class="st14" width="12" height="20"/>
	</g>
	<g id="XMLID_30_">
		<g>
			<defs>
				<rect id="SVGID_4_" x="223.1" y="469.7" width="12" height="20"/>
			</defs>
			<clipPath id="SVGID_5_">
				<use xlink:href="#SVGID_4_"  style="overflow:visible;"/>
			</clipPath>
			<polyline id="XMLID_31_" class="st15" points="232.8,476.1 238,481.3 239.6,482.4 235.4,490.8 227.8,483.2 227.2,481.3 227,480 
				227.7,479.3 225.3,476.9 			"/>
		</g>
	</g>
	<g id="XMLID_21_">
		
			<image style="overflow:visible;opacity:0.2;enable-background:new    ;" width="33" height="33" xlink:href="D8D9F047A24F6831.png"  transform="matrix(0.9697 0 0 0.9697 213.1632 467.4862)">
		</image>
		<g>
			<g>
				<path id="XMLID_35_" class="st13" d="M228.3,476.9h0.3h1.3h0.8h2.2v-0.8h-2.2h-0.8h-3.3c-0.1,0-0.1,0-0.2,0c-0.1,0-0.1,0-0.2,0
					h-0.8v0.3v0.6h1c0.7,0,1.3,0.6,1.3,1.3c0,0.1,0,0.1,0,0.2s-0.1,0.3-0.1,0.4l0,0l0,0l0,0c0,0,0,0,0,0.1l0,0l0,0l0,0l0,0l0,0
					l-0.1,0.1c0,0-0.1,0-0.2,0c-0.1,0-0.1,0-0.2-0.1l0,0l0,0l0,0l0,0l0,0l0,0l0,0l0,0l0,0l0,0c-0.1-0.1-0.3-0.1-0.4-0.1
					c-0.2,0-0.3,0-0.4,0.1l0,0l0,0c-0.1,0-0.1,0.1-0.2,0.1c-0.1,0.1-0.2,0.3-0.2,0.5v0.1v0.1c0,0.1,0.1,0.2,0.1,0.3l0,0l0,0l0,0l0,0
					l0.2,0.4l-0.2-0.3l0.2,0.3l0,0l0,0l0,0l0,0l0,0l0,0l0,0l0,0l0.4,0.7l0,0l0.4,0.7l0,0l0.2,0.4l0.2,0.3l0,0l0,0l0.3,0.5v0.1
					l0.6-0.6l0,0l-0.7-1.2l-0.1-0.1l0,0l-0.2-0.4l0,0l-0.1-0.1l-0.1-0.1l0,0l0,0l0,0l0,0l0,0l0,0l0,0l0,0l0,0v-0.1
					c0-0.1,0-0.2,0.1-0.2l0,0l0,0l0,0l0,0l0,0l0,0l0,0c0,0,0.1,0,0.1-0.1c0.1,0,0.1-0.1,0.2-0.1c0.1-0.1,0.2-0.1,0.3-0.2
					s0.2-0.3,0.3-0.4c0-0.1,0.1-0.2,0.1-0.2l0,0h0.1l0,0l0,0l0,0l0,0l0,0l0,0l0,0l0,0l0,0l0,0l0,0l0,0l0,0l0,0l0,0l0,0l0,0l0,0l0,0
					l0,0l0,0l0,0l0,0l0,0l0,0l0,0l0,0l0,0l0,0l0,0l0,0l0,0l0,0l0,0l0,0l0,0l0,0l0,0l0,0l0,0l0,0l0,0l0,0l0,0l0,0l0,0l0,0l0,0l0,0
					l0,0l0,0l0,0l0,0l0,0l0,0l0,0l0,0l0,0l0,0l0,0l0,0c0,0.1,0,0.1,0,0.2l0,0l0,0l0,0l0,0l0,0l0,0l0,0l0,0l0,0l0,0l0,0l0,0l0,0l0,0
					l0,0l0,0l0,0l0,0l0,0l0,0l0,0l0,0l0,0l0,0l0,0l0,0l0,0l0,0l0,0l0,0l0,0l0,0l0,0l0,0l0,0l0,0l0,0l0,0l0,0l0,0l0,0l0,0l0,0l0,0
					l0,0l0,0l0,0l0,0l0,0l0,0l0,0l0,0l0,0l0,0l0,0l0,0l0,0l0,0l0,0l0,0l0,0l0,0l0,0l0,0l0,0l0,0l0,0l0,0l0,0l0,0l0,0l0,0l0,0l0,0
					l0,0l0,0l0,0l0,0l0,0l0,0l0,0l0,0l0,0l0,0l0,0l0,0l0,0l0,0l0,0c0,0,0,0,0.1,0l0,0l0,0l0,0l0,0l0,0l0,0l0,0c0,0,0,0,0.1,0l0,0
					l0,0l0,0l0,0l0,0l0,0l0,0l0,0c0.1,0,0.2,0,0.3,0c0.2,0,0.3,0,0.5-0.1l0,0c0,0,0,0,0.1,0l0,0c0.2-0.1,0.3-0.2,0.4-0.3l-0.4-0.4
					l-0.1-0.1l0,0l0,0l-0.1-0.1c-0.1,0.1-0.2,0.2-0.4,0.2c-0.1,0-0.2,0-0.3-0.1l0,0l0,0l0,0l0,0l0,0l0,0l0,0l0,0l0,0l0,0l0,0l0,0
					l0,0l0,0l0,0l0,0l0,0l0,0l0,0l0,0l0,0l0,0l0,0l0,0l0,0l0,0l0,0l0,0l0,0l0,0l0,0l0,0l0,0l0,0l0,0l0,0l0,0l0,0l0,0l0,0l0,0l0,0
					c0-0.1,0.1-0.3,0.2-0.4l0,0l0.1-0.1h0.1l0,0h0.1l0,0l0,0l0,0l0,0l0,0c0.1,0,0.3,0,0.4,0.1c0.4,0.1,0.7,0.4,0.8,0.7
					c0.1,0.2,0.1,0.3,0.1,0.5c0,0.6-0.4,1.1-0.9,1.3v0.9c1-0.2,1.8-1.1,1.8-2.1c0-1.1-0.8-1.9-1.8-2.1c-0.1,0-0.3,0-0.4,0h-0.1
					c-0.1,0-0.1,0-0.2,0l0,0l0,0c0,0,0,0-0.1,0l0,0l0,0c-0.1,0-0.2,0-0.2,0.1l0,0l0,0l0,0h-0.1l0,0c0,0,0,0-0.1,0l0,0l0,0h-0.1H228
					c-0.1,0-0.1,0-0.2,0c-0.1,0-0.2,0-0.2,0l0,0l0,0l0,0c0,0-0.1,0-0.1-0.1l0,0l0,0l0,0l0,0c0-0.1,0-0.2,0-0.2c0-0.1,0-0.2-0.1-0.3
					c0-0.1,0-0.1-0.1-0.2c0-0.1-0.1-0.2-0.2-0.3l0,0c0,0,0,0,0-0.1C228.2,477,228.2,476.9,228.3,476.9z"/>
				<path id="XMLID_34_" class="st13" d="M230.6,479.8C230.7,479.8,230.7,479.8,230.6,479.8L230.6,479.8L230.6,479.8
					C230.7,479.8,230.7,479.8,230.6,479.8C230.7,479.8,230.7,479.8,230.6,479.8L230.6,479.8z"/>
			</g>
		</g>
	</g>
</g>
</svg>
